<?xml version="1.0" encoding="utf-8"?>
<svg width="320" height="180" viewBox="5 3 310 174" fill="none" xmlns="http://www.w3.org/2000/svg">
  <defs>
    <linearGradient id="bg" x1="20" y1="18" x2="302" y2="162" gradientUnits="userSpaceOnUse">
      <stop stop-color="#0F766E"/>
      <stop offset="1" stop-color="#155EEF"/>
    </linearGradient>
    <linearGradient id="panel" x1="42" y1="40" x2="284" y2="148" gradientUnits="userSpaceOnUse">
      <stop stop-color="#FFFFFF"/>
      <stop offset="1" stop-color="#EDF4FF"/>
    </linearGradient>
  </defs>
  <rect x="6" y="6" width="308" height="168" rx="18" fill="url(#bg)"/>
  <rect x="15" y="15" width="290" height="150" rx="12" fill="url(#panel)"/>
  <rect x="44" y="46" width="146" height="84" rx="14" fill="#FFFFFF" stroke="#D9E4F7"/>
  <rect x="52.692" y="57.077" width="110" height="10" rx="5" fill="#E6EEFB"/>
  <rect x="52.692" y="75.077" width="86" height="10" rx="5" fill="#E6EEFB"/>
  <path d="M86 130L74 142V130" fill="#FFFFFF" stroke="#D9E4F7"/>
  <rect x="198" y="58" width="82" height="68" rx="14" fill="#155EEF" opacity="0.16"/>
  <circle cx="222" cy="92" r="8" fill="#155EEF"/>
  <circle cx="240" cy="92" r="8" fill="#155EEF"/>
  <circle cx="258" cy="92" r="8" fill="#155EEF"/>
  <rect x="70.639" y="94.058" width="110" height="10" rx="5" style="stroke-width: 1px; fill: rgb(207, 223, 252);"/>
  <rect x="94.639" y="112.058" width="86" height="10" rx="5" style="stroke-width: 1px; fill: rgb(207, 223, 252);"/>
</svg>