<svg width="320" height="180" viewBox="0 0 320 180" fill="none" xmlns="http://www.w3.org/2000/svg">
<defs>
  <linearGradient id="bg" x1="20" y1="18" x2="302" y2="162" gradientUnits="userSpaceOnUse">
    <stop stop-color="#0F766E"/>
    <stop offset="1" stop-color="#155EEF"/>
  </linearGradient>
  <linearGradient id="panel" x1="42" y1="40" x2="284" y2="148" gradientUnits="userSpaceOnUse">
    <stop stop-color="#FFFFFF"/>
    <stop offset="1" stop-color="#EDF4FF"/>
  </linearGradient>
</defs>
<rect x="6" y="6" width="308" height="168" rx="18" fill="url(#bg)"/>
<rect x="20" y="20" width="280" height="140" rx="14" fill="url(#panel)"/>
<rect x="38" y="36" width="150" height="14" rx="7" fill="#C8D7F4"/>
<rect x="200" y="33" width="88" height="22" rx="11" fill="#155EEF" opacity="0.18"/>
<text x="209" y="48" fill="#155EEF" font-family="Segoe UI, Arial, sans-serif" font-size="10" font-weight="700">Data Ready !!</text>

<rect x="36" y="60" width="248" height="16" rx="8" fill="#F4F8FF" stroke="#DCE6F8"/>
<circle cx="48" cy="68" r="4" fill="#16A34A"/>
<path d="M46 68L48 70L51 66" stroke="white" stroke-width="1.5" stroke-linecap="round" stroke-linejoin="round"/>
<rect x="58" y="64" width="128" height="8" rx="4" fill="#C9D8F4"/>
<rect x="198" y="64" width="68" height="8" rx="4" fill="#E5EDFA"/>

<rect x="36" y="80" width="248" height="16" rx="8" fill="#F4F8FF" stroke="#DCE6F8"/>
<circle cx="48" cy="88" r="4" fill="#16A34A"/>
<path d="M46 88L48 90L51 86" stroke="white" stroke-width="1.5" stroke-linecap="round" stroke-linejoin="round"/>
<rect x="58" y="84" width="144" height="8" rx="4" fill="#C9D8F4"/>
<rect x="212" y="84" width="54" height="8" rx="4" fill="#E5EDFA"/>

<rect x="36" y="100" width="248" height="16" rx="8" fill="#F4F8FF" stroke="#DCE6F8"/>
<circle cx="48" cy="108" r="4" fill="#16A34A"/>
<path d="M46 108L48 110L51 106" stroke="white" stroke-width="1.5" stroke-linecap="round" stroke-linejoin="round"/>
<rect x="58" y="104" width="118" height="8" rx="4" fill="#C9D8F4"/>
<rect x="188" y="104" width="78" height="8" rx="4" fill="#E5EDFA"/>

<rect x="36" y="120" width="248" height="16" rx="8" fill="#F4F8FF" stroke="#DCE6F8"/>
<circle cx="48" cy="128" r="4" fill="#16A34A"/>
<path d="M46 128L48 130L51 126" stroke="white" stroke-width="1.5" stroke-linecap="round" stroke-linejoin="round"/>
<rect x="58" y="124" width="136" height="8" rx="4" fill="#C9D8F4"/>
<rect x="204" y="124" width="62" height="8" rx="4" fill="#E5EDFA"/>

</svg>
