<svg width="320" height="180" viewBox="5 3 310 174" fill="none" xmlns="http://www.w3.org/2000/svg">
<defs>
  <linearGradient id="bg" x1="20" y1="18" x2="302" y2="162" gradientUnits="userSpaceOnUse">
    <stop stop-color="#0F766E"/>
    <stop offset="1" stop-color="#155EEF"/>
  </linearGradient>
  <linearGradient id="panel" x1="42" y1="40" x2="284" y2="148" gradientUnits="userSpaceOnUse">
    <stop stop-color="#FFFFFF"/>
    <stop offset="1" stop-color="#EDF4FF"/>
  </linearGradient>
</defs>
<rect x="6" y="6" width="308" height="168" rx="18" fill="url(#bg)"/>
<rect x="15" y="15" width="290" height="150" rx="12" fill="url(#panel)"/>
<rect x="36" y="34" width="248" height="112" rx="12" fill="#FFFFFF" stroke="#D9E4F7"/>
<rect x="50" y="44" width="112" height="10" rx="5" fill="#C8D7F4"/>
<rect x="190" y="37" width="86" height="19" rx="8" fill="#155EEF" opacity="0.17"/>
<text x="198" y="50" fill="#155EEF" font-family="Segoe UI, Arial, sans-serif" font-size="8" font-weight="700">Report Templates</text>

<rect x="50" y="62" width="104" height="16" rx="8" fill="#0F766E" opacity="0.16"/>
<text x="61" y="73" fill="#0F766E" font-family="Segoe UI, Arial, sans-serif" font-size="9" font-weight="700">QS REPORT</text>

<rect x="160" y="62" width="104" height="16" rx="8" fill="#155EEF" opacity="0.14"/>
<text x="170" y="73" fill="#155EEF" font-family="Segoe UI, Arial, sans-serif" font-size="9" font-weight="700">QEC REPORT</text>

<rect x="50" y="84" width="104" height="16" rx="8" fill="#155EEF" opacity="0.14"/>
<text x="60" y="95" fill="#155EEF" font-family="Segoe UI, Arial, sans-serif" font-size="9" font-weight="700">HEC REPORT</text>

<rect x="160" y="84" width="104" height="16" rx="8" fill="#0F766E" opacity="0.16"/>
<text x="169" y="95" fill="#0F766E" font-family="Segoe UI, Arial, sans-serif" font-size="9" font-weight="700">ORIC REPORT</text>

<rect x="50" y="106" width="104" height="16" rx="8" fill="#155EEF" opacity="0.2"/>
<text x="61" y="117" fill="#155EEF" font-family="Segoe UI, Arial, sans-serif" font-size="9" font-weight="700">VC REPORT</text>

<rect x="160" y="106" width="104" height="16" rx="8" fill="#EAF1FF" stroke="#D6E2F7"/>
<text x="169" y="117" fill="#6B7A99" font-family="Segoe UI, Arial, sans-serif" font-size="8" font-weight="700">CUSTOM</text>

<rect x="226" y="126" width="38" height="12" rx="6" fill="#16A34A" opacity="0.2"/>
<text x="232" y="135" fill="#15803D" font-family="Segoe UI, Arial, sans-serif" font-size="7" font-weight="700">READY</text>

</svg>


